<svg width="24" height="24" viewBox="0 0 24 24" fill="none" xmlns="http://www.w3.org/2000/svg">
<path d="M21.1875 0H2.8125C1.2616 0 0 1.2616 0 2.8125V21.1875C0 22.7384 1.2616 24 2.8125 24H21.1875C22.7384 24 24 22.7384 24 21.1875V2.8125C24 1.2616 22.7384 0 21.1875 0ZM22.125 21.1875C22.125 21.7044 21.7044 22.125 21.1875 22.125H15.6562V15.2812H18.6575L19.0073 12.375H15.6562V9.23438C15.6562 8.43274 16.2609 7.82812 17.0625 7.82812H19.1719V5.10938C18.6167 5.03101 17.5457 4.92188 17.0625 4.92188C15.9692 4.92188 14.8733 5.38312 14.0559 6.18713C13.2138 7.0155 12.75 8.10059 12.75 9.24261V12.375H9.70312V15.2812H12.75V22.125H2.8125C2.29559 22.125 1.875 21.7044 1.875 21.1875V2.8125C1.875 2.29559 2.29559 1.875 2.8125 1.875H21.1875C21.7044 1.875 22.125 2.29559 22.125 2.8125V21.1875Z" fill="white"/>
</svg>
