<svg width="126" height="103" viewBox="0 0 126 103" fill="none" xmlns="http://www.w3.org/2000/svg">
<path d="M12.3934 95.1843C12.3934 95.5099 12.3791 95.7808 12.353 95.9971C12.3269 96.2157 12.2864 96.3916 12.2318 96.5247C12.1771 96.6601 12.1105 96.7576 12.0297 96.8194C11.9489 96.8812 11.861 96.9121 11.7635 96.9121H1.25978C0.90324 96.9121 0.606122 96.8027 0.363673 96.5841C0.121224 96.3655 0 96.0114 0 95.5194V76.5977C0 76.1058 0.121224 75.7517 0.363673 75.533C0.606122 75.3144 0.905617 75.2051 1.25978 75.2051H11.6993C11.7968 75.2051 11.8824 75.2336 11.9584 75.2882C12.0345 75.3453 12.0987 75.4427 12.1533 75.5806C12.208 75.7208 12.2484 75.899 12.2746 76.1177C12.3007 76.3363 12.315 76.612 12.315 76.9471C12.315 77.2608 12.3007 77.5245 12.2746 77.7432C12.2484 77.9618 12.208 78.1377 12.1533 78.2708C12.0987 78.4038 12.0345 78.5037 11.9584 78.5654C11.8824 78.6272 11.7968 78.6581 11.6993 78.6581H4.23334V83.9577H10.5513C10.6487 83.9577 10.7367 83.9886 10.8175 84.0504C10.8983 84.1122 10.9649 84.2073 11.0195 84.3356C11.0742 84.4639 11.1146 84.6374 11.1408 84.8561C11.1669 85.0747 11.1812 85.3409 11.1812 85.6522C11.1812 85.9778 11.1669 86.2439 11.1408 86.4578C11.1146 86.6693 11.0742 86.8404 11.0195 86.9688C10.9649 87.0971 10.8983 87.1898 10.8175 87.2444C10.7367 87.3015 10.6487 87.3276 10.5513 87.3276H4.23334V93.4495H11.7635C11.861 93.4495 11.9489 93.4804 12.0297 93.5422C12.1105 93.604 12.1771 93.7014 12.2318 93.8345C12.2864 93.9699 12.3269 94.1458 12.353 94.3621C12.3791 94.5878 12.3934 94.8588 12.3934 95.1843Z" fill="white"/>
<path d="M28.181 96.3916C28.181 96.5484 28.1263 96.672 28.0194 96.7599C27.9124 96.8502 27.7412 96.9144 27.5107 96.9524C27.2801 96.9904 26.9378 97.0118 26.4838 97.0118C25.9989 97.0118 25.6472 96.9928 25.4261 96.9524C25.205 96.912 25.0482 96.8478 24.9578 96.7599C24.8651 96.6696 24.82 96.5484 24.82 96.3916V95.2009C24.2281 95.8616 23.5507 96.3749 22.7924 96.7433C22.0342 97.1116 21.1904 97.297 20.2634 97.297C19.498 97.297 18.7944 97.1924 18.155 96.9857C17.5132 96.7789 16.9594 96.4723 16.4912 96.0636C16.0229 95.6548 15.6592 95.1486 15.4001 94.545C15.1411 93.9414 15.0127 93.2356 15.0127 92.4323C15.0127 91.5601 15.1767 90.802 15.5047 90.1604C15.8327 89.5163 16.3224 88.9864 16.9761 88.5657C17.6273 88.1475 18.4379 87.8361 19.4077 87.6341C20.3775 87.4321 21.5018 87.3323 22.7853 87.3323H24.1925V86.4269C24.1925 85.9563 24.1473 85.5452 24.0546 85.1935C23.9619 84.8417 23.8122 84.5471 23.603 84.3118C23.3938 84.0765 23.1133 83.903 22.7615 83.7913C22.4121 83.6796 21.9772 83.6226 21.4614 83.6226C20.7815 83.6226 20.1754 83.701 19.643 83.8579C19.1106 84.0147 18.6375 84.1882 18.2287 84.3783C17.8199 84.5684 17.4776 84.7419 17.2019 84.8988C16.9261 85.0556 16.7027 85.1341 16.5316 85.1341C16.4127 85.1341 16.3081 85.096 16.2154 85.0176C16.1227 84.9392 16.049 84.8275 15.9896 84.6825C15.9302 84.5375 15.885 84.3593 15.8518 84.1454C15.8185 83.9339 15.8042 83.6986 15.8042 83.442C15.8042 83.095 15.8304 82.8217 15.885 82.6197C15.9397 82.4177 16.0419 82.2371 16.1917 82.0755C16.3414 81.9139 16.6052 81.7333 16.9832 81.5384C17.3611 81.3435 17.8009 81.1605 18.3071 80.9942C18.8134 80.8255 19.3649 80.69 19.9639 80.583C20.5629 80.4761 21.1785 80.4238 21.8131 80.4238C22.9446 80.4238 23.912 80.5379 24.713 80.7684C25.5164 80.9966 26.1748 81.3507 26.693 81.826C27.2088 82.3013 27.5867 82.9144 27.8244 83.663C28.0621 84.4116 28.181 85.3004 28.181 86.3294V96.3916ZM24.1901 89.9845H22.6379C21.9795 89.9845 21.4209 90.0344 20.9574 90.1366C20.4939 90.2364 20.116 90.3885 19.826 90.5905C19.536 90.7925 19.3221 91.0349 19.1866 91.3201C19.0511 91.6053 18.9846 91.9332 18.9846 92.3016C18.9846 92.929 19.1747 93.4209 19.5574 93.7774C19.9401 94.1362 20.4702 94.3145 21.15 94.3145C21.7204 94.3145 22.2457 94.1648 22.7259 93.8606C23.206 93.5564 23.6933 93.1167 24.1877 92.5345V89.9845H24.1901Z" fill="white"/>
<path d="M42.3861 92.114C42.3861 92.9648 42.2316 93.7134 41.925 94.3621C41.6184 95.0109 41.1834 95.5528 40.6248 95.99C40.0639 96.4249 39.4031 96.7529 38.6377 96.9715C37.8723 97.1902 37.0427 97.2995 36.149 97.2995C35.6094 97.2995 35.096 97.2567 34.6064 97.1735C34.1167 97.0904 33.677 96.9834 33.2895 96.8551C32.9021 96.7268 32.5788 96.5961 32.3198 96.4606C32.0607 96.3275 31.8729 96.2015 31.754 96.0827C31.6352 95.9663 31.5449 95.7809 31.4783 95.529C31.4141 95.2771 31.3809 94.9064 31.3809 94.4144C31.3809 94.0912 31.3904 93.8298 31.4141 93.6349C31.4379 93.4401 31.4688 93.2832 31.5116 93.1644C31.5544 93.0479 31.609 92.9695 31.6732 92.9291C31.7374 92.8911 31.8182 92.8697 31.9157 92.8697C32.0345 92.8697 32.208 92.9386 32.441 93.0788C32.6715 93.219 32.9615 93.3735 33.3062 93.5399C33.6508 93.7086 34.0525 93.8654 34.5089 94.0104C34.9677 94.1554 35.4858 94.2291 36.0682 94.2291C36.4343 94.2291 36.7599 94.1887 37.0451 94.1126C37.3304 94.0342 37.5776 93.9225 37.7891 93.7775C38.0007 93.6326 38.1575 93.4472 38.2669 93.2238C38.3738 93.0004 38.4285 92.7437 38.4285 92.4514C38.4285 92.1163 38.3287 91.8288 38.129 91.5888C37.9294 91.3487 37.6655 91.1396 37.3375 90.959C37.0095 90.7808 36.6363 90.612 36.2227 90.4552C35.8067 90.2983 35.3813 90.1248 34.9463 89.9347C34.5089 89.7446 34.0834 89.526 33.6699 89.2812C33.2539 89.034 32.8831 88.7346 32.5551 88.3757C32.2271 88.0193 31.9632 87.5867 31.7635 87.0853C31.5639 86.5815 31.4641 85.9778 31.4641 85.2744C31.4641 84.5591 31.5995 83.9008 31.8681 83.3043C32.1367 82.7078 32.5242 82.1945 33.0305 81.7691C33.5368 81.3437 34.1548 81.0133 34.8797 80.7804C35.6071 80.5452 36.4224 80.4287 37.328 80.4287C37.7796 80.4287 38.2193 80.462 38.6448 80.5285C39.0703 80.5951 39.4554 80.6782 39.8 80.7804C40.1447 80.8802 40.4347 80.9896 40.6723 81.1084C40.91 81.2248 41.0788 81.327 41.181 81.4102C41.2832 81.4934 41.3569 81.5789 41.3997 81.6621C41.4425 81.7453 41.4758 81.8475 41.4972 81.9639C41.5185 82.0804 41.5376 82.2277 41.5542 82.3988C41.5708 82.5723 41.578 82.7886 41.578 83.0452C41.578 83.3471 41.5708 83.5942 41.5542 83.7843C41.5376 83.9744 41.5114 84.1266 41.4734 84.2359C41.4353 84.3476 41.3854 84.4236 41.3189 84.4616C41.2547 84.502 41.1786 84.521 41.0931 84.521C40.9956 84.521 40.8459 84.4616 40.6414 84.3452C40.437 84.2287 40.1803 84.1028 39.8737 83.9673C39.5671 83.8319 39.2105 83.7083 38.8064 83.5895C38.4024 83.473 37.9412 83.4136 37.4254 83.4136C37.0594 83.4136 36.7409 83.454 36.4723 83.53C36.2037 83.6085 35.9826 83.7202 35.8091 83.8651C35.6356 84.0101 35.5072 84.1812 35.4217 84.3761C35.3361 84.571 35.2933 84.7825 35.2933 85.0059C35.2933 85.3528 35.3955 85.6428 35.5999 85.878C35.8044 86.1133 36.073 86.3201 36.4081 86.4983C36.7409 86.6765 37.1212 86.8453 37.5467 87.0021C37.9721 87.159 38.4024 87.3301 38.8397 87.5131C39.2747 87.6984 39.7073 87.9123 40.1328 88.1595C40.5583 88.4066 40.9386 88.7084 41.2713 89.0649C41.6041 89.4238 41.8751 89.8515 42.0795 90.3482C42.2839 90.8425 42.3861 91.4319 42.3861 92.114Z" fill="white"/>
<path d="M53.3315 96.9124L51.5868 102.212C51.4894 102.492 51.2255 102.692 50.7953 102.816C50.3651 102.939 49.7352 103.001 48.9056 103.001C48.4754 103.001 48.1307 102.982 47.8716 102.942C47.6126 102.901 47.42 102.837 47.2893 102.749C47.1609 102.659 47.0896 102.547 47.0801 102.414C47.0682 102.279 47.1015 102.117 47.1776 101.927L49.1005 96.9124C48.9603 96.8459 48.8343 96.7413 48.7202 96.6011C48.6061 96.4609 48.5229 96.3135 48.4706 96.1567L43.51 82.4015C43.3697 82.0094 43.3008 81.7123 43.3008 81.5032C43.3008 81.2964 43.365 81.1348 43.4957 81.016C43.6264 80.8971 43.8427 80.8187 44.1494 80.7736C44.456 80.7284 44.8624 80.707 45.3687 80.707C45.8322 80.707 46.1983 80.7165 46.4669 80.7332C46.7355 80.7498 46.947 80.7926 47.0968 80.8591C47.2465 80.9257 47.3606 81.0302 47.4367 81.1681C47.5127 81.3083 47.5864 81.5055 47.6625 81.7646L51.0568 91.7792H51.1043L54.2062 81.5649C54.2704 81.275 54.3536 81.0825 54.4558 80.9875C54.558 80.8924 54.7268 80.8235 54.9645 80.7783C55.2022 80.7332 55.6157 80.7118 56.2076 80.7118C56.6711 80.7118 57.0562 80.7332 57.3628 80.7783C57.6694 80.8235 57.8952 80.9067 58.0426 81.0302C58.1876 81.1538 58.2613 81.3178 58.2613 81.5245C58.2613 81.7313 58.2185 81.9737 58.1329 82.2541L53.3315 96.9124Z" fill="white"/>
<path d="M78.9693 93.6223C78.9693 93.9027 78.9622 94.1404 78.9455 94.3352C78.9289 94.5301 78.9051 94.6988 78.8718 94.8391C78.8386 94.9793 78.7958 95.0981 78.7435 95.2003C78.6888 95.3001 78.6032 95.4165 78.4844 95.5449C78.3655 95.6732 78.1374 95.8396 77.7974 96.0392C77.4575 96.2412 77.044 96.4337 76.5543 96.6191C76.0647 96.8044 75.5037 96.9565 74.8738 97.0801C74.2439 97.2037 73.5617 97.2655 72.8296 97.2655C71.3963 97.2655 70.1033 97.0349 68.9505 96.5787C67.7976 96.12 66.8183 95.4356 66.0102 94.523C65.202 93.6128 64.5816 92.4744 64.1514 91.1103C63.7212 89.7462 63.5049 88.1587 63.5049 86.3478C63.5049 84.5036 63.7426 82.8639 64.2156 81.4332C64.6886 80.0026 65.3518 78.8 66.2027 77.828C67.0537 76.8561 68.0734 76.117 69.2642 75.6132C70.4551 75.1093 71.7671 74.8574 73.1981 74.8574C73.7804 74.8574 74.339 74.9073 74.8786 75.0071C75.4181 75.107 75.9149 75.24 76.3737 75.4016C76.8324 75.5632 77.2436 75.751 77.6097 75.9625C77.9757 76.174 78.2324 76.357 78.3774 76.5067C78.5224 76.6564 78.6223 76.7824 78.6769 76.8846C78.7316 76.9868 78.7744 77.1127 78.8053 77.2696C78.8386 77.4264 78.8623 77.6118 78.879 77.8233C78.8956 78.0348 78.9027 78.2986 78.9027 78.6123C78.9027 78.9474 78.8908 79.2326 78.8695 79.4678C78.8481 79.7031 78.81 79.8932 78.7554 80.0382C78.7007 80.1832 78.6365 80.2901 78.5605 80.3567C78.4844 80.4232 78.3988 80.4565 78.3014 80.4565C78.1397 80.4565 77.9353 80.359 77.6881 80.1618C77.4409 79.9669 77.12 79.7483 76.7278 79.5082C76.3333 79.2682 75.865 79.0496 75.3207 78.8547C74.7764 78.6598 74.1274 78.5624 73.374 78.5624C72.5444 78.5624 71.8028 78.7382 71.1515 79.09C70.5002 79.4417 69.944 79.9455 69.4876 80.5991C69.0289 81.2526 68.6819 82.044 68.4465 82.9732C68.2089 83.9024 68.09 84.9481 68.09 86.1102C68.09 87.384 68.216 88.489 68.4703 89.423C68.7223 90.357 69.0836 91.1246 69.5518 91.7306C70.0201 92.3366 70.5858 92.7858 71.249 93.0804C71.9121 93.3775 72.6561 93.5249 73.4881 93.5249C74.2415 93.5249 74.8952 93.4322 75.4443 93.2468C75.9933 93.0614 76.464 92.8594 76.8586 92.6337C77.2508 92.4103 77.574 92.2083 77.8283 92.03C78.0803 91.8518 78.2776 91.7615 78.4178 91.7615C78.5248 91.7615 78.6127 91.7852 78.6769 91.828C78.7411 91.8732 78.7958 91.9611 78.8386 92.0966C78.8813 92.2297 78.9146 92.4174 78.936 92.6574C78.9598 92.8998 78.9693 93.2207 78.9693 93.6223Z" fill="#F05665"/>
<path d="M94.0628 96.3916C94.0628 96.5484 94.0082 96.672 93.9012 96.7599C93.7942 96.8502 93.6231 96.9144 93.3925 96.9524C93.162 96.9904 92.8197 97.0118 92.3657 97.0118C91.8808 97.0118 91.529 96.9928 91.308 96.9524C91.0869 96.912 90.93 96.8478 90.8397 96.7599C90.747 96.6696 90.7018 96.5484 90.7018 96.3916V95.2009C90.11 95.8616 89.4325 96.3749 88.6743 96.7433C87.916 97.1116 87.0722 97.297 86.1452 97.297C85.3798 97.297 84.6763 97.1924 84.0369 96.9857C83.3951 96.7789 82.8413 96.4723 82.373 96.0636C81.9047 95.6548 81.5411 95.1486 81.282 94.545C81.0229 93.9414 80.8945 93.2356 80.8945 92.4323C80.8945 91.5601 81.0585 90.802 81.3866 90.1604C81.7146 89.5163 82.2042 88.9864 82.8579 88.5657C83.5092 88.1475 84.3197 87.8361 85.2895 87.6341C86.2593 87.4321 87.3836 87.3323 88.6672 87.3323H90.0743V86.4269C90.0743 85.9563 90.0291 85.5452 89.9364 85.1935C89.8437 84.8417 89.694 84.5471 89.4848 84.3118C89.2757 84.0765 88.9952 83.903 88.6434 83.7913C88.294 83.6796 87.859 83.6226 87.3432 83.6226C86.6634 83.6226 86.0573 83.701 85.5248 83.8579C84.9924 84.0147 84.5194 84.1882 84.1105 84.3783C83.7017 84.5684 83.3594 84.7419 83.0837 84.8988C82.808 85.0556 82.5845 85.1341 82.4134 85.1341C82.2946 85.1341 82.19 85.096 82.0973 85.0176C82.0046 84.9392 81.9309 84.8275 81.8715 84.6825C81.812 84.5375 81.7669 84.3593 81.7336 84.1454C81.7003 83.9339 81.6861 83.6986 81.6861 83.442C81.6861 83.095 81.7122 82.8217 81.7669 82.6197C81.8215 82.4177 81.9238 82.2371 82.0735 82.0755C82.2233 81.9139 82.4871 81.7333 82.865 81.5384C83.243 81.3435 83.6827 81.1605 84.189 80.9942C84.6953 80.8255 85.2467 80.69 85.8457 80.583C86.4447 80.4761 87.0603 80.4238 87.695 80.4238C88.8264 80.4238 89.7938 80.5379 90.5949 80.7684C91.3983 80.9966 92.0567 81.3507 92.5749 81.826C93.0907 82.3013 93.4686 82.9144 93.7063 83.663C93.944 84.4116 94.0628 85.3004 94.0628 86.3294V96.3916ZM90.0719 89.9845H88.5198C87.8614 89.9845 87.3028 90.0344 86.8393 90.1366C86.3758 90.2364 85.9978 90.3885 85.7079 90.5905C85.4179 90.7925 85.2039 91.0349 85.0685 91.3201C84.933 91.6053 84.8664 91.9332 84.8664 92.3016C84.8664 92.929 85.0566 93.4209 85.4393 93.7774C85.822 94.1362 86.352 94.3145 87.0318 94.3145C87.6023 94.3145 88.1276 94.1648 88.6077 93.8606C89.0879 93.5564 89.5752 93.1167 90.0696 92.5345V89.9845H90.0719Z" fill="#F05665"/>
<path d="M108.265 92.114C108.265 92.9648 108.111 93.7133 107.804 94.3621C107.497 95.0109 107.062 95.5528 106.504 95.99C105.943 96.4249 105.282 96.7529 104.517 96.9715C103.751 97.1902 102.922 97.2995 102.028 97.2995C101.488 97.2995 100.975 97.2567 100.485 97.1735C99.9956 97.0904 99.5559 96.9834 99.1685 96.8551C98.781 96.7267 98.4577 96.596 98.1987 96.4606C97.9396 96.3275 97.7518 96.2015 97.6329 96.0827C97.5141 95.9663 97.4238 95.7809 97.3572 95.529C97.293 95.2771 97.2598 94.9064 97.2598 94.4144C97.2598 94.0912 97.2693 93.8298 97.293 93.6349C97.3168 93.4401 97.3477 93.2832 97.3905 93.1644C97.4333 93.0479 97.488 92.9695 97.5521 92.9291C97.6163 92.8911 97.6971 92.8697 97.7946 92.8697C97.9134 92.8697 98.0869 92.9386 98.3199 93.0788C98.5505 93.219 98.8404 93.3735 99.1851 93.5399C99.5298 93.7086 99.9315 93.8654 100.388 94.0104C100.847 94.1554 101.365 94.2291 101.947 94.2291C102.313 94.2291 102.639 94.1887 102.924 94.1126C103.209 94.0342 103.456 93.9225 103.668 93.7775C103.88 93.6326 104.036 93.4472 104.146 93.2238C104.253 93.0004 104.307 92.7437 104.307 92.4514C104.307 92.1163 104.208 91.8288 104.008 91.5888C103.808 91.3487 103.544 91.1396 103.216 90.959C102.888 90.7807 102.515 90.612 102.102 90.4552C101.686 90.2983 101.26 90.1248 100.825 89.9347C100.388 89.7446 99.9624 89.526 99.5488 89.2812C99.1328 89.034 98.762 88.7346 98.434 88.3757C98.106 88.0193 97.8421 87.5867 97.6425 87.0853C97.4428 86.5815 97.343 85.9778 97.343 85.2744C97.343 84.5591 97.4784 83.9008 97.747 83.3043C98.0156 82.7078 98.4031 82.1945 98.9094 81.7691C99.4157 81.3437 100.034 81.0133 100.759 80.7804C101.486 80.5452 102.301 80.4287 103.207 80.4287C103.659 80.4287 104.098 80.462 104.524 80.5285C104.949 80.5951 105.334 80.6782 105.679 80.7804C106.024 80.8802 106.314 80.9896 106.551 81.1084C106.789 81.2248 106.958 81.327 107.06 81.4102C107.162 81.4934 107.236 81.5789 107.279 81.6621C107.321 81.7453 107.355 81.8475 107.376 81.9639C107.397 82.0804 107.416 82.2277 107.433 82.3988C107.45 82.5723 107.457 82.7886 107.457 83.0452C107.457 83.3471 107.45 83.5942 107.433 83.7843C107.416 83.9744 107.39 84.1266 107.352 84.2359C107.314 84.3476 107.264 84.4236 107.198 84.4616C107.134 84.502 107.058 84.521 106.972 84.521C106.875 84.521 106.725 84.4616 106.52 84.3452C106.316 84.2287 106.059 84.1028 105.753 83.9673C105.446 83.8319 105.089 83.7083 104.685 83.5895C104.281 83.473 103.82 83.4136 103.304 83.4136C102.938 83.4136 102.62 83.454 102.351 83.53C102.083 83.6085 101.862 83.7202 101.688 83.8651C101.515 84.0101 101.386 84.1812 101.301 84.3761C101.215 84.571 101.172 84.7825 101.172 85.0059C101.172 85.3528 101.274 85.6428 101.479 85.878C101.683 86.1133 101.952 86.3201 102.287 86.4983C102.62 86.6765 103 86.8453 103.426 87.0021C103.851 87.159 104.281 87.3301 104.719 87.5131C105.154 87.6984 105.586 87.9123 106.012 88.1595C106.437 88.4066 106.817 88.7084 107.15 89.0649C107.483 89.4238 107.754 89.8515 107.958 90.3482C108.163 90.8425 108.265 91.4319 108.265 92.114Z" fill="#F05665"/>
<path d="M125.087 96.3414C125.087 96.4531 125.054 96.5505 124.99 96.6337C124.925 96.7169 124.816 96.7882 124.666 96.8428C124.514 96.8999 124.307 96.9403 124.044 96.9688C123.78 96.9973 123.454 97.0116 123.067 97.0116C122.667 97.0116 122.337 96.9973 122.073 96.9688C121.809 96.9403 121.602 96.8999 121.45 96.8428C121.298 96.7882 121.191 96.7169 121.127 96.6337C121.063 96.5505 121.03 96.4531 121.03 96.3414V87.8026C121.03 87.0754 120.977 86.5051 120.875 86.0916C120.773 85.678 120.626 85.3216 120.431 85.0269C120.236 84.7298 119.986 84.5017 119.679 84.3401C119.373 84.1785 119.014 84.0977 118.605 84.0977C118.089 84.0977 117.566 84.2925 117.039 84.6847C116.511 85.0768 115.962 85.6471 115.391 86.3957V96.3438C115.391 96.4555 115.358 96.5529 115.294 96.6361C115.23 96.7193 115.118 96.7906 114.964 96.8452C114.807 96.9023 114.6 96.9427 114.341 96.9712C114.082 96.9997 113.754 97.014 113.354 97.014C112.955 97.014 112.627 96.9997 112.368 96.9712C112.109 96.9427 111.902 96.9023 111.745 96.8452C111.588 96.7906 111.479 96.7193 111.415 96.6361C111.351 96.5529 111.317 96.4555 111.317 96.3438V74.2875C111.317 74.1758 111.351 74.076 111.415 73.9856C111.479 73.8953 111.591 73.8217 111.745 73.7599C111.902 73.6981 112.109 73.6506 112.368 73.6173C112.627 73.584 112.955 73.5674 113.354 73.5674C113.754 73.5674 114.082 73.584 114.341 73.6173C114.6 73.6506 114.807 73.6981 114.964 73.7599C115.12 73.8217 115.23 73.8977 115.294 73.9856C115.358 74.076 115.391 74.1758 115.391 74.2875V82.5577C116.093 81.8424 116.806 81.3076 117.533 80.9559C118.26 80.6042 119.016 80.4283 119.803 80.4283C120.782 80.4283 121.61 80.5971 122.285 80.9322C122.957 81.2672 123.502 81.7259 123.918 82.3082C124.331 82.8904 124.631 83.5701 124.814 84.3472C124.997 85.1243 125.089 86.0678 125.089 87.1729V96.3414H125.087Z" fill="#F05665"/>
<path d="M87.5094 47.5011V47.9313C87.5094 50.7522 84.6143 53.0598 81.0774 53.0598H58.9385C64.0156 50.814 68.3345 47.0805 71.3865 42.375H81.0774C84.6143 42.3726 87.5094 44.6802 87.5094 47.5011Z" fill="#F05665"/>
<path d="M93.6923 26.4887V26.9307C93.6923 29.7516 90.7972 32.0592 87.2603 32.0592H75.6133C76.0292 30.0606 76.2455 27.9883 76.2455 25.8542C76.2455 24.3261 76.1362 22.8289 75.9199 21.3721H87.2603C90.7996 21.3721 93.6923 23.6678 93.6923 26.4887Z" fill="#F05665"/>
<path d="M100.164 5.11661V5.55864C100.164 8.37955 97.2687 10.6752 93.7318 10.6752H72.2038C69.6367 6.22406 65.9619 2.52385 61.5859 0H93.7341C94.1786 0 94.6041 0.0404005 95.0272 0.10219C95.4432 0.173485 95.8473 0.275674 96.2323 0.399252L96.7957 0.615514C97.5159 0.933966 98.1695 1.36411 98.6925 1.86555C99.61 2.74724 100.164 3.88558 100.164 5.11661Z" fill="#F05665"/>
<path d="M42.1242 28.0996V37.3799C38.8844 37.4725 35.7421 37.8409 32.8089 38.4778C32.0578 35.2671 31.6228 31.7499 31.5254 28.0996H42.1242Z" fill="#BAB7B7"/>
<path d="M69.3611 28.0879C69.0735 33.2164 67.4049 38.0668 64.5311 42.1782C62.437 40.9875 60.0268 39.9942 57.3789 39.2242C58.1894 35.7569 58.6625 31.9949 58.7623 28.0879H69.3611Z" fill="white"/>
<path d="M69.3615 24.9604H58.7603C58.6605 21.0629 58.1875 17.2891 57.377 13.8336C60.0249 13.0636 62.4351 12.0703 64.5292 10.8701C67.4053 14.9815 69.0739 19.8438 69.3615 24.9604Z" fill="white"/>
<path d="M42.1236 40.5078V53.0605C41.1656 52.7824 40.2172 52.2287 39.2974 51.4302C37.826 50.1374 36.4926 48.2623 35.335 45.8526C34.6837 44.5098 34.1204 43.053 33.626 41.4941C36.2929 40.9285 39.1595 40.6005 42.1236 40.5078Z" fill="#BAB7B7"/>
<path d="M62.582 8.40804C60.804 9.3729 58.7789 10.1833 56.5659 10.8273C56.0121 9.03306 55.3703 7.35049 54.6192 5.80339C54.0369 4.59375 53.4046 3.49581 52.7414 2.51193C52.5536 2.22438 52.3564 1.9487 52.1591 1.69204C52.0117 1.48766 51.8524 1.29279 51.7051 1.10742C53.7017 1.78472 55.608 2.7282 57.386 3.89744C58.206 4.42977 58.9857 5.01439 59.7463 5.65129C60.4784 6.2573 61.1796 6.91322 61.8499 7.60953C62.0995 7.8757 62.3467 8.14187 62.582 8.40804Z" fill="white"/>
<path d="M53.6333 41.4911C53.1389 43.0501 52.5756 44.5069 51.9243 45.8496C50.7691 48.2594 49.4356 50.1368 47.9619 51.4273C47.0421 52.2282 46.0937 52.7819 45.1357 53.0576V40.5049C48.0998 40.5999 50.9664 40.9279 53.6333 41.4911Z" fill="#BAB7B7"/>
<path d="M35.5541 51.9413C34.1897 51.4684 32.8563 50.8956 31.5822 50.1874C29.3408 48.9564 27.2562 47.3665 25.4069 45.4392C25.1597 45.1825 24.9125 44.9163 24.6748 44.6502C24.9315 44.5076 25.1882 44.3721 25.464 44.239C27.0446 43.4595 28.7941 42.7822 30.6909 42.2285C31.2447 44.0228 31.896 45.7053 32.6376 47.2524C33.5194 49.0705 34.4964 50.6508 35.5541 51.9413Z" fill="white"/>
<path d="M42.1241 0V12.5527C39.1601 12.46 36.2958 12.1225 33.6289 11.5688C34.1233 10.0098 34.6866 8.55303 35.3379 7.21031C36.4931 4.80053 37.8266 2.9231 39.3003 1.63266C40.2178 0.819893 41.1638 0.278051 42.1241 0Z" fill="#BAB7B7"/>
<path d="M42.1237 15.6807V24.9609H31.5225C31.6223 21.3106 32.0549 17.7934 32.806 14.5732C35.7415 15.2078 38.8815 15.588 42.1237 15.6807Z" fill="#BAB7B7"/>
<path d="M55.7365 28.0883C55.6367 31.7505 55.2041 35.2677 54.453 38.476C51.5198 37.8391 48.3775 37.4707 45.1377 37.3781V28.0859H55.7365V28.0883Z" fill="#BAB7B7"/>
<path d="M62.582 44.6498C62.3443 44.9159 62.0971 45.1821 61.8499 45.4387C60.4665 46.8742 58.9548 48.1266 57.3361 49.1817C55.5771 50.351 53.6803 51.2731 51.7051 51.9409C52.0616 51.5107 52.4063 51.0378 52.7414 50.5459C53.4022 49.562 54.0345 48.464 54.6192 47.2544C55.3703 45.7049 56.0121 44.0247 56.5659 42.2305C58.7789 42.8769 60.804 43.6873 62.582 44.6498Z" fill="white"/>
<path d="M35.5546 1.10742C34.4969 2.40975 33.52 3.97824 32.6405 5.80339C31.8989 7.35287 31.2476 9.03306 30.6938 10.8273C28.5094 10.1904 26.5056 9.39191 24.7467 8.43893C24.7277 8.42942 24.6967 8.41754 24.6777 8.40804C24.8156 8.25356 24.944 8.11097 25.0937 7.9565C25.1935 7.84481 25.3005 7.72123 25.4098 7.60715C28.3026 4.60563 31.7705 2.40024 35.5546 1.10742Z" fill="white"/>
<path d="M55.7369 24.9609H45.1357V15.6807C48.3755 15.588 51.5178 15.2078 54.451 14.5732C55.2045 17.7934 55.6371 21.3106 55.7369 24.9609Z" fill="#BAB7B7"/>
<path d="M53.6329 11.5688C50.966 12.1225 48.0994 12.46 45.1377 12.5527V0C46.0956 0.278051 47.044 0.819893 47.9639 1.63028C49.4352 2.9231 50.7687 4.79816 51.9263 7.20793C52.5752 8.55303 53.1385 10.0098 53.6329 11.5688Z" fill="#BAB7B7"/>
</svg>
